<?xml version="1.0" encoding="UTF-8"?>
<svg version="1.1" xmlns="http://www.w3.org/2000/svg" viewBox="0 0 485 485" width="32" height="32">
<g transform="translate(0, 74)">
<path d="M0 0 C0.96679688 0.53109375 1.93359375 1.0621875 2.9296875 1.609375 C21.57627176 12.5270852 34.36877435 29.57849284 43 49 C43.72509766 50.62035156 43.72509766 50.62035156 44.46484375 52.2734375 C52.99722843 72.86527166 54.32939729 95.3803385 54.22705078 117.4050293 C54.22648457 119.15165195 54.2268073 120.89827508 54.22793579 122.64489746 C54.22850213 127.31928638 54.2168663 131.99356953 54.20278788 136.66793418 C54.1901587 141.57791826 54.18910053 146.48790562 54.18673706 151.39790344 C54.18055769 160.66565234 54.16419561 169.93335321 54.14403808 179.2010811 C54.11735401 191.74578038 54.10667776 204.29049309 54.09503365 216.83521366 C54.07631185 236.55684497 54.03644279 256.27837502 54 276 C26.28 276 -1.44 276 -30 276 C-30.04898438 264.7078125 -30.09796875 253.415625 -30.1484375 241.78125 C-30.18384179 234.60806546 -30.21973337 227.43488877 -30.2578125 220.26171875 C-30.31810287 208.88755114 -30.37645939 197.51339819 -30.421875 186.13916016 C-30.45496844 177.85327979 -30.49489341 169.56746428 -30.54279006 161.28165579 C-30.56788385 156.90038469 -30.58971414 152.51915565 -30.60334396 148.13783264 C-30.61632166 144.00099698 -30.63853916 139.86430689 -30.66738319 135.72755241 C-30.67633792 134.22171049 -30.68212026 132.7158452 -30.68421364 131.2099781 C-30.71892798 110.00210146 -32.72018489 88.32555569 -47.5 71.8125 C-59.61946071 60.49489397 -76.6429885 57.25223313 -92.75390625 57.71484375 C-110.71176288 59.29236906 -126.58951915 65.53397983 -139.125 78.7265625 C-152.53959216 94.9917555 -155.29028478 115.3276942 -155.31884766 135.68261719 C-155.32816742 137.22131871 -155.33833906 138.76001527 -155.34928894 140.29870605 C-155.37637247 144.43834885 -155.3916734 148.57795804 -155.40471697 152.71766567 C-155.42044323 157.05784862 -155.4472027 161.39796388 -155.4727478 165.73809814 C-155.51936862 173.94001088 -155.55619306 182.14193658 -155.58942068 190.34391332 C-155.63494231 201.43908066 -155.6957537 212.53416381 -155.75566864 223.62926102 C-155.84953825 241.08613161 -155.92311486 258.5430272 -156 276 C-183.72 276 -211.44 276 -240 276 C-240 181.29 -240 86.58 -240 -11 C-213.6 -11 -187.2 -11 -160 -11 C-159.67 -0.77 -159.34 9.46 -159 20 C-156.69 17.69 -154.38 15.38 -152 13 C-111.34521296 -20.68539497 -45.7278891 -26.45759415 0 0 Z " fill="#FCFCFC" transform="translate(260,36)"/>
<path d="M0 0 C9.56724396 9.1686088 15.33442184 20.44684936 15.828125 33.7890625 C16.12612136 50.80296761 12.9333314 64.09437573 1.0625 77 C-9.42705744 86.97552093 -23.98315816 92.14470143 -38.3671875 91.96875 C-54.77649622 90.43437308 -67.7388064 83.88941572 -78.421875 71.26953125 C-88.33263155 57.94930504 -90.13933405 42.24622428 -87.87890625 26.15625 C-84.8754959 12.98875604 -77.27195854 2.38252395 -66.0625 -5.1875 C-45.13001776 -17.63542772 -18.62386256 -15.92757201 0 0 Z " fill="#FA6900" transform="translate(449.375,225.3125)"/>
</g>
</svg>
